<svg width="143" height="184" viewBox="0 0 143 184" fill="none" xmlns="http://www.w3.org/2000/svg">
<path d="M141.825 117.652C140.155 110.842 135.276 104.092 131.783 98.0852C133.545 96.7506 134.683 94.6347 134.683 92.2506C134.683 89.5898 133.264 87.2611 131.144 85.9818C135.111 69.9468 133.547 52.4708 125.396 38.0152C126.395 36.8317 126.996 35.3034 126.996 33.6324C126.996 29.8775 123.958 26.8357 120.212 26.8357C119.557 26.8357 118.924 26.9314 118.323 27.1039C118.11 27.1166 117.893 27.1252 117.67 27.1294C105.867 14.0128 88.8392 6.86271 71.5116 4.65958C70.3557 1.92216 67.6487 0 64.4956 0C60.2906 0 56.8804 3.41646 56.8804 7.62902C56.8804 11.8416 60.2906 15.258 64.4956 15.258C66.3101 15.258 67.9738 14.6216 69.2827 13.5615C76.8363 21.9632 83.0747 31.8081 86.4573 42.6578C84.6512 43.622 83.1533 45.0887 82.1419 46.8682C76.4878 45.1355 70.5576 44.0542 64.6486 43.6242C63.7349 43.5582 63.2993 43.522 62.3835 43.4794C61.9607 43.4603 61.0407 43.4028 60.6221 43.4007L53.3341 43.6433L46.18 44.0435C46.18 44.0435 46.1715 44.0371 46.1672 44.0329C45.0177 42.6088 43.2584 41.6956 41.2866 41.6956C37.8211 41.6956 35.0142 44.5097 35.0142 47.9794C35.0142 51.449 37.8232 54.2631 41.2866 54.2631C41.7689 54.2631 42.2406 54.2056 42.6911 54.1034C44.0446 55.9979 45.1388 58.35 46.0971 60.5063C48.5151 65.9365 50.3424 71.6391 51.7341 77.4226C50.2107 77.8653 48.8763 78.7445 47.8692 79.9173C37.5109 75.6047 27.0208 71.571 16.3714 68.0225C16.3884 67.8076 16.3991 67.5926 16.3991 67.3754C16.3991 62.8393 12.7274 59.161 8.19953 59.161C3.67163 59.161 0 62.8393 0 67.3754C0 71.9116 3.67163 75.5898 8.19953 75.5898C11.2868 75.5898 13.9726 73.8805 15.3707 71.356L46.2352 82.9443C46.0312 83.6531 45.9207 84.4002 45.9207 85.1729C45.9207 89.6218 49.5137 93.2298 53.9524 93.2426C54.1861 96.1482 54.2393 99.1304 54.1288 102.051C54.0268 104.769 53.7931 107.645 53.4913 110.353C53.4127 111.061 53.094 114.033 52.7647 114.308C52.4566 114.567 50.3127 114.94 49.7071 115.076C44.7075 116.204 39.591 116.787 34.4873 117.245C33.7946 114.548 31.3511 112.554 28.4423 112.554C24.9959 112.554 22.2018 115.353 22.2018 118.805C22.2018 122.258 24.9959 125.057 28.4423 125.057C31.0877 125.057 33.3463 123.407 34.2557 121.079C37.0859 121.025 39.9374 120.953 42.7591 120.674C45.9314 120.359 49.076 119.695 52.2143 119.186C50.0938 130.093 47.0724 140.875 42.5381 151.011C42.5126 151.011 42.4871 151.011 42.4616 151.011C37.7233 151.011 33.8817 154.86 33.8817 159.607C33.8817 164.354 37.7233 168.202 42.4616 168.202C44.6204 168.202 46.5922 167.402 48.0986 166.084L75.0281 176.689C75.0281 176.704 75.0281 176.719 75.0281 176.736C75.0281 180.672 78.2132 183.861 82.1397 183.861C86.0663 183.861 89.2514 180.67 89.2514 176.736C89.2514 174.045 87.7619 171.704 85.5649 170.491C86.861 167.472 88.9624 163.7 91.867 162.212C93.3543 161.45 97.6251 160.29 99.1125 160.863C99.7945 161.125 100.91 162.142 101.656 162.572C107.204 165.765 116.478 169.162 121.486 163.362C125.156 159.113 122.814 151.197 125.589 148.421C126.684 147.327 128.872 147.729 130.075 146.422C130.869 145.558 131.237 144.349 130.995 143.182C130.738 141.939 128.177 139.774 130.196 138.883C131.484 138.314 132.877 139.212 133.604 137.188C134.671 134.21 132.801 132.09 132.816 129.472C132.828 127.237 138.024 125.487 139.685 124.546C142.857 122.752 142.628 120.953 141.818 117.652H141.825ZM123.356 98.462C116.793 113.931 105.761 127.322 92.5979 137.633C91.4442 136.771 90.0227 136.252 88.4822 136.22C88.1316 135.172 87.6982 132.488 87.5516 131.579C86.708 126.373 86.5168 120.291 86.8546 115.038C86.9396 113.729 87.2286 112.334 87.286 110.997C91.9775 110.768 95.7128 106.883 95.7128 102.125C95.7128 100.927 95.4749 99.786 95.0457 98.743C102.385 92.7934 108.85 85.6391 113.304 77.2502L113.752 77.1501C113.797 77.1501 113.841 77.1544 113.884 77.1544C114.963 77.1544 115.981 76.9011 116.888 76.4519L116.993 76.4285L122.955 86.4373C121.208 87.7741 120.082 89.8793 120.082 92.2506C120.082 94.4431 121.047 96.4078 122.57 97.7489C122.814 97.9958 123.074 98.2342 123.356 98.462ZM57.3181 108.011C57.658 103.59 57.8939 98.8111 57.7536 94.3793C57.7324 93.7279 57.4434 93.0936 57.5093 92.4273C58.8118 91.7908 59.9167 90.8117 60.7092 89.6069L78.551 98.9856C78.1834 99.9627 77.9794 101.021 77.9794 102.125C77.9794 103.041 78.1175 103.922 78.3746 104.752C77.3951 105.401 74.1123 106.874 73.188 107.302C67.942 109.737 62.2986 111.828 56.6849 113.224C56.8697 111.498 57.1863 109.739 57.3202 108.009L57.3181 108.011ZM94.6101 62.5647C96.5627 61.9815 98.2838 60.8618 99.6033 59.3739C102.739 61.4366 105.599 63.8994 108.283 66.5133C107.535 67.6053 107.097 68.9272 107.097 70.3534C107.097 72.4927 108.085 74.4021 109.628 75.6494C105.364 83.2955 99.2952 89.8133 92.5469 95.3244C92.0752 94.9263 91.561 94.5772 91.0128 94.2835C92.3748 89.1471 93.6879 83.9362 94.2892 78.6359C94.8948 73.3122 94.7737 67.9182 94.6101 62.5647ZM83.0258 116.736C82.2821 123.595 82.9302 130.741 84.2433 137.497C82.3862 138.791 81.1708 140.945 81.1708 143.382C81.1708 144.042 81.2622 144.679 81.4279 145.285C72.1214 150.437 62.1477 154.698 51.5812 156.435C56.8527 151.891 61.8545 147.082 66.3526 141.754C72.8885 134.014 78.5085 125.164 82.8176 115.996C83.1766 115.938 83.0513 116.511 83.0258 116.736ZM120.365 59.6315C121.956 53.418 122.848 46.8533 122.763 40.4291C123.086 40.5483 123.339 41.1784 123.509 41.4892C124.967 44.1691 126.352 47.775 127.281 50.6955C130.835 61.8729 130.787 73.6123 128.067 84.9707C127.842 84.9494 127.612 84.9367 127.381 84.9367C126.96 84.9367 126.548 84.975 126.146 85.0431C125.823 84.364 125.307 83.1656 125.135 82.857C123.45 79.8343 121.563 76.9309 119.523 74.1402C120.25 73.0568 120.673 71.754 120.673 70.3534C120.673 68.4206 119.867 66.6794 118.575 65.4405C118.773 64.4975 120.154 60.4446 120.362 59.6315H120.365ZM73.1519 12.9655C72.7716 12.5291 71.5392 11.5265 71.2694 11.1093C71.7326 10.2068 72.0215 9.19995 72.0917 8.13137C88.1911 10.4239 103.889 17.0801 115.021 29.1452C114.817 29.4219 114.632 29.7114 114.468 30.0095C113.807 31.0589 113.423 32.2998 113.423 33.6302C113.423 36.9871 115.851 39.7735 119.045 40.3269C119.1 40.3929 119.139 40.4589 119.151 40.5313C118.996 46.9257 118.272 53.2626 116.54 59.4186C116.342 60.1168 115.499 63.2991 115.223 63.6333C115.21 63.6482 115.191 63.661 115.176 63.6759C114.757 63.595 114.326 63.5524 113.886 63.5524C112.768 63.5524 111.715 63.8249 110.784 64.3038C107.89 61.4408 104.665 58.9652 101.424 56.5194C102 55.1954 102.323 53.7352 102.323 52.2004C102.323 46.2275 97.4913 41.387 91.5291 41.387C90.9852 41.387 90.4519 41.4274 89.9292 41.5062C86.2576 31.0525 80.4293 21.2842 73.154 12.9655H73.1519ZM46.0036 52.7113C45.9335 52.5389 45.9123 52.3707 45.9271 52.2047C46.9406 51.0893 47.5568 49.6056 47.5568 47.9794C47.5568 47.7899 47.5462 47.6026 47.5313 47.4174C48.6362 47.2514 49.586 47.3088 50.625 47.2386C57.1268 46.7894 63.6818 47.0023 70.1411 47.9134C71.4436 48.0964 79.1927 49.4758 80.918 50.2251C80.799 50.8658 80.7353 51.5278 80.7353 52.2026C80.7353 57.9115 85.1548 62.586 90.7515 62.9841C90.8429 63.3651 90.879 63.7546 90.9002 64.1548C91.2869 70.9452 90.7345 78.2804 89.5489 84.9579C89.0517 87.7592 88.3271 90.5073 87.764 93.2915C87.4623 93.2596 87.1542 93.2447 86.844 93.2447C84.3665 93.2447 82.1291 94.2622 80.5207 95.9034L61.9628 86.2415C62.0096 85.8924 62.0351 85.5369 62.0351 85.1751C62.0351 81.203 59.1709 77.9037 55.3973 77.231C53.5487 68.6271 50.3509 60.3361 46.0036 52.7134V52.7113ZM46.3648 151.75C47.1744 149.257 48.5512 146.558 49.4606 143.989C52.4013 135.687 54.4964 127.101 56.022 118.42C64.5402 115.934 72.9076 112.869 80.6248 108.456C81.0455 108.871 81.5108 109.246 82.008 109.569C81.4556 111.264 78.0942 117.688 77.5417 118.69C70.2474 131.935 60.195 143.978 48.3834 153.385C47.7693 152.8 47.0702 152.304 46.3053 151.918C46.3266 151.859 46.3478 151.801 46.3648 151.748V151.75ZM95.1391 157.502C88.2485 158.068 85.1824 162.095 82.4223 167.857C82.2332 168.253 81.9825 169.162 81.77 169.622C79.4158 169.746 77.3654 171.014 76.1627 172.885L50.421 162.828C50.7631 161.978 50.9756 161.063 51.0308 160.103C62.4515 158.394 73.3007 154.107 83.319 148.5C84.6087 149.768 86.3766 150.552 88.3292 150.552C88.8243 150.552 89.3066 150.501 89.7741 150.405C90.6686 151.58 91.4824 152.817 92.3897 153.983C93.161 154.975 94.2616 155.973 94.9309 156.972C95.0499 157.148 95.2326 157.174 95.1413 157.504L95.1391 157.502ZM138.015 120.312C137.492 122.66 131.568 123.065 129.807 125.715C127.65 128.959 130.079 131.098 129.412 133.623C128.634 136.571 124.773 133.244 122.564 134.423C120.471 135.543 121.905 137.629 122.967 138.883C123.817 139.887 126.773 141.924 126.599 143.129C126.48 143.949 122.885 145.228 122.018 146.009C119.334 148.429 120.288 155.235 119.338 158.651C118.722 160.865 117.456 161.444 115.335 161.878C105.997 163.785 97.9205 155.714 93.5498 148.28C94.7482 146.999 95.4834 145.277 95.4834 143.382C95.4834 142.378 95.2773 141.424 94.9054 140.556C108.561 129.776 119.84 115.753 126.622 99.6391C127.406 99.4624 127.774 99.5752 128.286 100.137C130.296 102.345 133.438 107.773 134.911 110.529C136.192 112.926 138.614 117.635 138.017 120.312H138.015Z" fill="#71CCD2"/>
</svg>
